<?xml version="1.0" encoding="UTF-8"?>
<svg version="1.1" xmlns="http://www.w3.org/2000/svg" width="1000" height="1000">
<path d="M0 0 C330 0 660 0 1000 0 C1000 329.34 1000 658.68 1000 998 C670 998 340 998 0 998 C0 668.66 0 339.32 0 0 Z " fill="#FEFEFE" transform="translate(0,2)"/>
<path d="M0 0 C3.7313751 1.2437917 4.64216904 2.74206199 7.0625 5.8125 C7.86042969 6.81667969 8.65835938 7.82085937 9.48046875 8.85546875 C9.89603027 9.37931152 10.3115918 9.9031543 10.73974609 10.44287109 C12.72125821 12.89116329 14.81156768 15.24563546 16.875 17.625 C22.468941 24.33078021 27.15755623 31.52859162 31.73779297 38.95410156 C32.52902901 40.23660795 33.32657787 41.51526418 34.13330078 42.78808594 C42.56958396 56.12574454 47.86312788 71.00037311 51.9375 86.1875 C52.13690186 86.92830811 52.33630371 87.66911621 52.54174805 88.43237305 C61.45410147 123.76816717 52.51975029 163.07788316 34.63354492 194.12548828 C26.9435269 207.00006161 17.88030842 218.7514041 8 230 C6.76892068 231.43586234 5.53935592 232.87302736 4.3125 234.3125 C3.1678125 235.6428125 3.1678125 235.6428125 2 237 C-2.16389537 235.42632123 -4.59268047 232.38130402 -7.375 229.0625 C-7.89320313 228.44697266 -8.41140625 227.83144531 -8.9453125 227.19726562 C-29.93074636 201.93979702 -47.65918086 173.13750327 -52 140 C-52.18175781 138.98035156 -52.36351562 137.96070313 -52.55078125 136.91015625 C-56.4842504 102.67187263 -48.68054936 68.0061538 -30 39 C-29.59942383 38.37706055 -29.19884766 37.75412109 -28.78613281 37.11230469 C-20.2045004 23.9284523 -10.2598856 11.89780713 0 0 Z " fill="#777878" transform="translate(499,192)"/>
<path d="M0 0 C27.61898894 -1.10238519 53.93708129 1.18452515 79 14 C79.71994141 14.36528809 80.43988281 14.73057617 81.18164062 15.10693359 C85.30822279 17.2359169 89.31992903 19.49510413 93.26660156 21.94140625 C94.87652551 22.9245936 96.52704932 23.84043992 98.1796875 24.75 C101.15356298 26.63710512 103.01551979 28.08191206 105 31 C105.96542569 35.94780665 105.95675996 40.70208817 105.94287109 45.72558594 C106.8006989 79.87739743 127.21955835 115.1791959 148 141 C146 142 146 142 143.0859375 141.06640625 C141.84469287 140.57576076 140.6079876 140.07354091 139.375 139.5625 C138.70984375 139.28954102 138.0446875 139.01658203 137.359375 138.73535156 C119.50603685 131.27138575 103.63645821 121.71405773 89 109 C88.07445312 108.20851563 87.14890625 107.41703125 86.1953125 106.6015625 C79.71603958 100.91200706 74.20330974 94.86836886 69 88 C68.5992627 87.47422363 68.19852539 86.94844727 67.78564453 86.40673828 C60.10271463 76.25183093 53.58098648 65.45264934 48 54 C56.45434517 88.21996853 83.67898586 119.04277384 113.140625 137.32861328 C119.90076561 141.37588271 126.71635911 144.99092828 134 148 C130.96555216 148.95158381 128.9818586 149.00285743 125.90234375 148.25 C125.11053711 148.05752686 124.31873047 147.86505371 123.50292969 147.66674805 C122.65633789 147.44672119 121.80974609 147.22669434 120.9375 147 C119.61153809 146.65932495 119.61153809 146.65932495 118.25878906 146.31176758 C91.60503763 139.2314207 67.78707876 127.33600553 48 108 C47.35804688 107.40832031 46.71609375 106.81664062 46.0546875 106.20703125 C36.30578613 97.02492647 29.23223281 85.73432957 23 74 C22.40445312 72.90171875 21.80890625 71.8034375 21.1953125 70.671875 C16.56305011 61.81910688 13.05215108 52.66816386 9.77856445 43.24023438 C9.27965309 41.80467131 8.76881367 40.37316521 8.24291992 38.94726562 C5.93083316 32.47130636 4.56724438 25.82783104 3.21020508 19.09570312 C2.8088014 17.10667274 2.39819049 15.11970091 1.98632812 13.1328125 C0 3.41523731 0 3.41523731 0 0 Z " fill="#787979" transform="translate(328,278)"/>
<path d="M0 0 C1.28583984 0.00451172 2.57167969 0.00902344 3.89648438 0.01367188 C7.03520653 0.02533999 10.17382728 0.04170985 13.3125 0.0625 C10.51224615 19.10877639 6.66316187 37.2284983 -0.6875 55.0625 C-0.97383301 55.76987305 -1.26016602 56.47724609 -1.55517578 57.20605469 C-9.60391447 76.96246753 -20.73824012 93.76462913 -35.6875 109.0625 C-36.58984375 109.990625 -37.4921875 110.91875 -38.421875 111.875 C-58.26099803 131.16608096 -90.15654116 146.06449681 -117.6875 149.0625 C-118.6775 148.7325 -119.6675 148.4025 -120.6875 148.0625 C-119.63433594 147.52882813 -118.58117187 146.99515625 -117.49609375 146.4453125 C-102.21217613 138.59633192 -88.38928593 129.66868165 -75.6875 118.0625 C-75.18653809 117.60681641 -74.68557617 117.15113281 -74.16943359 116.68164062 C-56.8636465 100.72092121 -41.93877159 79.99479629 -35.6875 57.0625 C-35.6875 56.0725 -35.6875 55.0825 -35.6875 54.0625 C-36.1721875 55.07828125 -36.656875 56.0940625 -37.15625 57.140625 C-48.03559861 79.62058984 -63.95934488 100.96674976 -84.1875 115.9375 C-84.88182129 116.4521582 -85.57614258 116.96681641 -86.29150391 117.49707031 C-101.14243532 128.34488283 -117.14399151 136.49239748 -134.6875 142.0625 C-133.90375 141.051875 -133.12 140.04125 -132.3125 139 C-118.91397486 121.040944 -108.30271298 102.14909493 -100.6875 81.0625 C-100.43097656 80.35883301 -100.17445313 79.65516602 -99.91015625 78.93017578 C-95.73858067 67.26949457 -92.35566361 54.33890872 -92.7421875 41.875 C-92.91244487 32.49192693 -92.91244487 32.49192693 -89.23046875 28.1953125 C-85.96595392 25.41211757 -82.37587888 23.23207759 -78.6875 21.0625 C-77.53665632 20.33899284 -76.38689152 19.61376636 -75.23828125 18.88671875 C-63.3900103 11.583083 -50.84971934 7.17154759 -37.4375 3.75 C-36.44379395 3.49524902 -35.45008789 3.24049805 -34.42626953 2.97802734 C-22.93589386 0.18028774 -11.78806229 -0.07944262 0 0 Z " fill="#787979" transform="translate(658.6875,277.9375)"/>
<path d="M0 0 C2.2578125 2.15625 2.2578125 2.15625 4.4765625 4.63671875 C14.23079499 14.80694057 28.38553839 21.6983692 41.1328125 27.40625 C41.74157227 27.68162598 42.35033203 27.95700195 42.97753906 28.24072266 C52.64923929 32.54704329 62.51951691 35.3413656 72.77929688 37.83154297 C75.03226641 38.38169756 77.27790171 38.95551591 79.5234375 39.53515625 C89.33135003 42.01547284 99.06626057 43.44873067 109.1328125 44.40625 C109.1328125 45.39625 109.1328125 46.38625 109.1328125 47.40625 C103.82234275 50.12078293 98.489999 52.78516025 93.1328125 55.40625 C92.27945313 55.8290625 91.42609375 56.251875 90.546875 56.6875 C79.05087024 61.83372596 64.66129433 64.01276753 52.1328125 64.40625 C51.41029297 64.43734863 50.68777344 64.46844727 49.94335938 64.50048828 C3.99031167 66.2992012 -35.31237156 48.88115529 -68.8671875 18.40625 C-56.09637813 3.93266604 -18.02954647 -10.02187324 0 0 Z " fill="#787979" transform="translate(372.8671875,398.59375)"/>
<path d="M0 0 C1.66493496 0.18235164 3.33034205 0.36042268 4.99609375 0.53515625 C22.19141169 2.49739409 40.76598868 6.89052732 53 20 C38.4700702 34.22722293 22.21941711 44.08701596 4 53 C2.91074219 53.53625 1.82148437 54.0725 0.69921875 54.625 C-8.42678571 58.75558193 -18.25756932 60.85085057 -28 63 C-28.73460449 63.16806152 -29.46920898 63.33612305 -30.22607422 63.50927734 C-61.84981515 70.5586906 -97.32880775 66.27274107 -125 49 C-125.33 48.34 -125.66 47.68 -126 47 C-120.69736028 45.93284836 -115.39236119 44.87981578 -110.08203125 43.8515625 C-98.59371462 41.61290673 -87.24836253 39.25873781 -76 36 C-74.67935547 35.65195312 -74.67935547 35.65195312 -73.33203125 35.296875 C-66.17899636 33.34087818 -59.65888614 30.22638888 -53 27 C-52.0203125 26.54753906 -51.040625 26.09507812 -50.03125 25.62890625 C-39.46302466 20.61468106 -29.502542 14.41329629 -20.98413086 6.37231445 C-14.09093851 -0.04187895 -9.38667245 -1.40751552 0 0 Z " fill="#787979" transform="translate(643,397)"/>
<path d="M0 0 C1.35575333 0.96938676 2.69652209 1.96138404 4 3 C2.68775452 6.93673644 1.08089673 9.22719294 -2 12 C-6.13190321 10.57965827 -9.58161015 8.47227033 -13.23046875 6.12109375 C-18.4902809 2.78871828 -24.64406317 3.25311481 -30.59765625 4.578125 C-42.02089215 8.56086969 -49.41634315 17.63921452 -55 28 C-55.54140625 28.98226562 -55.54140625 28.98226562 -56.09375 29.984375 C-59.21853482 36.7547421 -59.27442879 45.48468511 -57.2734375 52.57421875 C-55.31847254 56.87355226 -53.35686896 58.94970872 -49 61 C-45.62387149 61.43602853 -45.62387149 61.43602853 -42.0625 61.3125 C-40.87785156 61.30863281 -39.69320312 61.30476562 -38.47265625 61.30078125 C-34.84094841 60.98622388 -32.26146728 60.64674365 -29 59 C-27.50571294 56.66997531 -26.43526969 54.69663337 -25.375 52.1875 C-23.37980276 47.68418926 -21.45027287 43.59709299 -18 40 C-14.3125 39.125 -14.3125 39.125 -11 39 C-10.67 39.33 -10.34 39.66 -10 40 C-10.14489719 48.11424238 -13.73140282 53.32204093 -19.02734375 59.28125 C-21.46158275 62.63616157 -22.55341156 65.88031472 -23.75 69.8125 C-24.08064453 70.85180664 -24.08064453 70.85180664 -24.41796875 71.91210938 C-24.95503027 73.60502068 -25.47888708 75.30211158 -26 77 C-25.11248047 77.07347656 -25.11248047 77.07347656 -24.20703125 77.1484375 C-19.80895528 77.56456867 -16.03071103 78.04965595 -12 80 C-12.495 81.98 -12.495 81.98 -13 84 C-14.72945653 83.85764543 -16.45855654 83.71095618 -18.1875 83.5625 C-19.15042969 83.48128906 -20.11335938 83.40007812 -21.10546875 83.31640625 C-23.78649602 83.02333849 -26.3662986 82.57296246 -29 82 C-29.350625 83.258125 -29.70125 84.51625 -30.0625 85.8125 C-32.07352847 91.83609944 -35.36433899 96.83312107 -39 102 C-39.69416016 102.99386719 -39.69416016 102.99386719 -40.40234375 104.0078125 C-47.82401353 113.602203 -59.75067012 118.74970656 -71.54296875 120.34375 C-76.70814284 120.55711347 -81.51757829 119.64648428 -86 117 C-89.98612182 113.29082957 -92.15997967 109.80767066 -92.4375 104.375 C-92.35866463 99.39403779 -91.1872655 96.62297591 -87.953125 92.875 C-74.97738801 80.41829249 -57.5809618 75.84801709 -40 75.8125 C-37.99957303 75.85938501 -35.99919804 75.91565883 -34 76 C-33.34 73.03 -32.68 70.06 -32 67 C-32.90492188 67.41572266 -32.90492188 67.41572266 -33.828125 67.83984375 C-35.02695313 68.38318359 -35.02695313 68.38318359 -36.25 68.9375 C-37.03890625 69.29714844 -37.8278125 69.65679688 -38.640625 70.02734375 C-44.49543378 72.44099836 -50.07422691 72.85064575 -56.125 70.75 C-62.98265475 67.88273395 -66.63407344 63.4830103 -70 57 C-70.8125 54.625 -70.8125 54.625 -71 52 C-71.061875 51.31679688 -71.12375 50.63359375 -71.1875 49.9296875 C-71.91874829 35.71604888 -65.11206472 24.02905782 -56.375 13.375 C-42.00371567 -2.13818871 -19.86532532 -10.7215384 0 0 Z " fill="#333534" transform="translate(276,633)"/>
<path d="M0 0 C2.625 1.5 2.625 1.5 4 4 C4.84758146 10.35686096 3.63019108 14.7491879 0 20 C-4.75637154 25.85587524 -9.4355929 31.15565109 -16 35 C-18.375 34.75 -18.375 34.75 -20 34 C-20 30 -20 30 -18.609375 28.578125 C-17.68898438 27.92070313 -17.68898438 27.92070313 -16.75 27.25 C-12.80587315 24.08989836 -10.62096328 20.78429768 -9 16 C-8.65987041 13.16309163 -8.65987041 13.16309163 -9 11 C-12.84985302 9.84504409 -15.34252853 9.84617297 -18.9375 11.5 C-24.6297428 14.65145243 -30.62519967 19.85345797 -33 26 C-33.49894891 29.75052607 -33.83906756 33.29595833 -33 37 C-28.29322804 42.09900295 -20.89366035 44.42739116 -14.66015625 47.20117188 C-9.56271549 49.54021029 -5.47978809 51.52493354 -2 56 C-2 56.99 -2 57.98 -2 59 C1.3 59 4.6 59 8 59 C8 60.65 8 62.3 8 64 C5.36 64 2.72 64 0 64 C-0.0928125 65.423125 -0.0928125 65.423125 -0.1875 66.875 C-1.77739823 77.78346842 -9.08071117 85.860432 -17.375 92.4375 C-31.45104025 102.67939496 -47.27040875 110.06676378 -65 108 C-69.07711307 105.99799689 -71.32002604 104.29326678 -73 100 C-73.63364018 95.42873867 -72.83491515 92.2025676 -70.19921875 88.40625 C-56.26404099 72.42532076 -36.31228012 64.55989962 -16 60 C-19.92893011 57.95368224 -23.87082432 56.03663919 -27.953125 54.31640625 C-29.01080078 53.86793335 -29.01080078 53.86793335 -30.08984375 53.41040039 C-31.51087854 52.81150361 -32.93531387 52.22060159 -34.36328125 51.63842773 C-39.43808764 49.49275755 -42.92570181 47.41717093 -45.25 42.1875 C-46.7937958 35.62636786 -46.26111575 31.9681652 -43 26.0625 C-34.69957203 12.72193241 -17.0439177 -3.32024371 0 0 Z " fill="#323433" transform="translate(574,629)"/>
<path d="M0 0 C17.70908621 2.91797443 32.5273795 13.72914248 45 26 C45.93714844 26.87140625 46.87429688 27.7428125 47.83984375 28.640625 C50 31 50 31 50.0625 34.0625 C49.06792651 38.42915122 47.49768739 42.66299512 46.046875 46.89453125 C43.03916367 55.81666001 41.26028384 64.67389957 40 74 C39.3915625 73.5875 38.783125 73.175 38.15625 72.75 C24.62020853 63.83213738 10.16057532 57.6150279 -5 52 C-5.40638159 34.20048633 -5.16889334 17.14724183 0 0 Z " fill="#787979" transform="translate(394,220)"/>
<path d="M0 0 C0.73465818 3.32159282 1.38041585 6.65508287 2 10 C2.19078125 11.01964844 2.3815625 12.03929687 2.578125 13.08984375 C4.59447383 25.66321894 4.18754694 38.30307217 4 51 C2.82566406 51.40089844 1.65132812 51.80179687 0.44140625 52.21484375 C-14.32701664 57.38116613 -28.28792467 63.7647316 -41 73 C-41.15855469 72.13761719 -41.31710937 71.27523437 -41.48046875 70.38671875 C-42.92839472 62.81110606 -44.6048166 55.336182 -46.5625 47.875 C-46.77221436 47.07022217 -46.98192871 46.26544434 -47.19799805 45.4362793 C-48.04655419 42.25411001 -48.87821571 39.27489573 -50.21484375 36.2578125 C-51.24669784 33.29059028 -51.1028757 31.94702852 -50 29 C-48.30245924 26.9044152 -46.67715983 25.10707031 -44.75 23.25 C-43.94526245 22.46556519 -43.94526245 22.46556519 -43.12426758 21.6652832 C-34.37300986 13.35076314 -12.78830896 -4.26276965 0 0 Z " fill="#787979" transform="translate(607,221)"/>
<path d="M0 0 C5.26748399 7.90122598 3.19380624 18.04645324 2 27 C2.30550781 26.47792969 2.61101563 25.95585938 2.92578125 25.41796875 C8.65179488 16.2079581 16.51021712 6.67142401 27 3 C32.03034882 2.40317895 34.98439823 2.87675418 39 6 C42.92276763 10.19821621 42.48930759 14.11126132 42.34765625 19.6171875 C41.30846482 29.7288704 35.52537239 38.95603872 28.1875 45.8125 C20.2954781 52.22756506 13.14086775 53.96504358 3 53 C2.01 52.505 2.01 52.505 1 52 C1.875 47.125 1.875 47.125 3 46 C6.23255976 45.75344883 9.46427492 45.61578909 12.703125 45.4765625 C18.68740302 44.61153653 21.97741639 41.40680447 25.640625 36.875 C30.09545316 30.73040943 30.94601294 24.40838705 30 17 C28.03805637 14.65520163 28.03805637 14.65520163 24.4375 14.375 C19.43998092 14.55541585 16.76509267 16.94720305 13.2890625 20.3515625 C-4.75690115 41.23068085 -14.67656469 70.85465151 -22 97 C-24.31 96.67 -26.62 96.34 -29 96 C-30.48450853 91.40509264 -28.75792017 88.28173917 -27 84 C-26.40782342 82.41995281 -25.82524762 80.83628888 -25.25 79.25 C-24.91613281 78.33089844 -24.58226562 77.41179687 -24.23828125 76.46484375 C-22.31131489 71.07298519 -20.42853369 65.66567401 -18.54980469 60.25683594 C-17.25320103 56.53366849 -15.94459026 52.81933997 -14.546875 49.1328125 C-12.53720029 43.8098723 -10.66173252 38.44299752 -8.8125 33.0625 C-8.44447266 32.02931641 -8.07644531 30.99613281 -7.69726562 29.93164062 C-4.98140592 21.97553213 -3.90791179 15.17509733 -6 6.9375 C-6.185625 6.18339844 -6.37125 5.42929687 -6.5625 4.65234375 C-6.706875 4.10707031 -6.85125 3.56179688 -7 3 C-2.25 0 -2.25 0 0 0 Z " fill="#333534" transform="translate(606,659)"/>
<path d="M0 0 C2.31 0.33 4.62 0.66 7 1 C6.27700794 5.01662256 4.35708832 8.41619963 2.5 12 C-4.85494577 26.55145166 -11.262995 41.19891781 -16.5625 56.625 C-16.78645447 57.27608734 -17.01040894 57.92717468 -17.2411499 58.59799194 C-19.85122818 65.15789323 -19.85122818 65.15789323 -21 72 C-20.57589844 71.28714844 -20.15179687 70.57429687 -19.71484375 69.83984375 C-13.80252139 60.18521625 -7.11031688 51.70343896 4 48 C8.45443424 47.49116013 11.96664874 47.51495757 16.0625 49.4375 C18.52204074 52.69044097 18.66831702 54.75864505 18.40625 58.76171875 C17.39450506 64.33604425 14.05678623 67.14849699 9.625 70.25 C6.19847231 72.41352658 2.95343082 73.98629979 -1 75 C0.5858625 80.94802927 0.5858625 80.94802927 3.75 86.125 C7.14808216 87.4464764 9.50095858 86.85941368 13 86 C14.6829392 85.02763513 16.35443434 84.03435556 18 83 C18.99 83.495 18.99 83.495 20 84 C19.4916752 88.44784203 18.16430777 90.83569223 15 94 C11.25344139 96.58186756 8.04863832 97.90637158 3.5 98.3125 C-2.86998513 95.92375558 -6.47241734 90.43458486 -10 84.8125 C-11.16274401 81.54228248 -11.59742749 79.43520806 -11 76 C-7.7070213 72.38834594 -3.54484657 70.8002547 0.9140625 69.02734375 C3.14079934 67.930655 4.46965359 66.95034685 6 65 C6.25048636 61.87450983 6.25048636 61.87450983 6 59 C3.15236942 58.07452006 0.96880402 57.64517054 -1.8984375 58.6953125 C-14.27552464 65.69105741 -19.92862828 79.83687305 -26 92 C-26.37334473 92.74652832 -26.74668945 93.49305664 -27.13134766 94.26220703 C-27.41800293 94.83567871 -27.7046582 95.40915039 -28 96 C-30.64 95.34 -33.28 94.68 -36 94 C-35.46065772 88.6477259 -34.53008716 84.01014671 -32.734375 78.90625 C-32.50480103 78.24962875 -32.27522705 77.59300751 -32.03869629 76.91648865 C-31.2853875 74.77412173 -30.51878075 72.63685968 -29.75 70.5 C-29.4866687 69.76089386 -29.2233374 69.02178772 -28.95202637 68.26028442 C-9.90369168 14.85553753 -9.90369168 14.85553753 0 0 Z " fill="#343635" transform="translate(795,616)"/>
<path d="M0 0 C0.81964269 3.81099982 1.6293935 7.62403875 2.4375 11.4375 C2.66759766 12.50677734 2.89769531 13.57605469 3.13476562 14.67773438 C4.42336602 20.78457974 5.43132718 26.78381775 6 33 C8.10948233 31.01052042 9.68899427 29.08631989 11.1640625 26.59375 C11.55956299 25.93705322 11.95506348 25.28035645 12.36254883 24.60375977 C12.77915771 23.90951904 13.1957666 23.21527832 13.625 22.5 C25.10379643 3.82339026 25.10379643 3.82339026 30.76171875 2.21484375 C31.50035156 2.14394531 32.23898437 2.07304688 33 2 C35.73677584 5.13733609 36.47256453 7.42126034 36.9140625 11.53515625 C37.03523438 12.59154297 37.15640625 13.64792969 37.28125 14.73632812 C37.3946875 15.83396484 37.508125 16.93160156 37.625 18.0625 C37.86466582 20.24116429 38.10674345 22.41956501 38.3515625 24.59765625 C38.45291504 25.56195557 38.55426758 26.52625488 38.65869141 27.51977539 C38.93989952 30.12627201 38.93989952 30.12627201 40 33 C40.49628906 32.23816406 40.99257813 31.47632813 41.50390625 30.69140625 C48.76787308 19.65072802 56.63132661 9.36867339 66 0 C68.125 0.375 68.125 0.375 70 1 C70 5.88532742 68.31477197 7.26919662 65.1875 10.625 C54.89148453 22.23407689 47.58226142 36.02673514 41 50 C38.6875 49.8125 38.6875 49.8125 36 49 C33.42685105 45.48101948 32.50073944 42.46591701 31.90234375 38.18359375 C31.74056641 37.08982422 31.57878906 35.99605469 31.41210938 34.86914062 C31.25548828 33.73669922 31.09886719 32.60425781 30.9375 31.4375 C30.61941044 29.18532374 30.29542994 26.93396964 29.96484375 24.68359375 C29.8268335 23.68900146 29.68882324 22.69440918 29.54663086 21.66967773 C29.02565012 19.12527201 28.28175005 17.24347884 27 15 C22.54511522 20.56451584 19.04057436 26.27964322 15.8125 32.625 C15.17538086 33.85476563 15.17538086 33.85476563 14.52539062 35.109375 C12.73881554 38.56582819 10.98321591 42.03402079 9.26171875 45.5234375 C8 48 8 48 7 49 C4.625 49.375 4.625 49.375 2 49 C-1.43535848 44.72924417 -1.79273917 40.19263101 -2.4375 34.9375 C-3.55354541 26.66739615 -5.01020935 18.52632062 -6.73022461 10.36108398 C-6.89530518 9.57032471 -7.06038574 8.77956543 -7.23046875 7.96484375 C-7.37895264 7.2699585 -7.52743652 6.57507324 -7.68041992 5.85913086 C-8 4 -8 4 -8 1 C-5.29120665 -0.35439668 -2.99066732 -0.06501451 0 0 Z " fill="#333534" transform="translate(371,662)"/>
<path d="M0 0 C0.66 0 1.32 0 2 0 C7.0968767 20.89719447 7.43086176 42.71251265 7.4375 64.125 C7.44056152 65.20511353 7.44362305 66.28522705 7.44677734 67.39807129 C7.46617695 94.07156594 4.89332049 120.50704575 2 147 C1.34 147 0.68 147 0 147 C-9.86263247 40.43679314 -9.86263247 40.43679314 0 0 Z " fill="#FAFBFB" transform="translate(499,262)"/>
<path d="M0 0 C-0.33 1.65 -0.66 3.3 -1 5 C-2.12535156 5.23783203 -2.12535156 5.23783203 -3.2734375 5.48046875 C-15.18926128 8.19679634 -26.55888342 12.78312875 -33.5 23.4375 C-35.34230828 27.81298217 -35.47004622 30.29953775 -35 35 C-34.34 35.99 -33.68 36.98 -33 38 C-27.47326245 38.88427801 -24.26517225 37.45488324 -19.83984375 34.4140625 C-17.29847648 32.46082481 -15.15476166 30.37576286 -13 28 C-12.44441406 27.401875 -11.88882813 26.80375 -11.31640625 26.1875 C-7.29266784 21.75706115 -3.99033659 17.1814127 -1 12 C1.475 12.99 1.475 12.99 4 14 C3.37123425 17.95327432 2.10664619 21.18412808 0.4375 24.8125 C-1.75577201 29.91122717 -2.52868276 33.50169926 -2 39 C2.05606165 38.53199289 5.46588679 38.12046792 9 36 C9.66 36.99 10.32 37.98 11 39 C7.42638274 43.91372374 3.94421063 47.25491064 -2 49 C-5.02721199 49.17024742 -6.99408655 48.77739141 -10 48 C-12.28062828 44.57905758 -12.21925007 43.31812778 -12.125 39.3125 C-12.10695313 38.31863281 -12.08890625 37.32476563 -12.0703125 36.30078125 C-12.04710937 35.54152344 -12.02390625 34.78226563 -12 34 C-12.54527344 34.59167969 -13.09054687 35.18335938 -13.65234375 35.79296875 C-20.79642226 43.27898606 -27.47737999 48.37879809 -37.9375 49.375 C-41.53248885 49.35487879 -41.94820858 49.04297586 -44.9375 46.5625 C-45.618125 45.716875 -46.29875 44.87125 -47 44 C-47.33 43.67 -47.66 43.34 -48 43 C-49.40183279 34.53576912 -46.63206236 27.9796963 -42 21 C-32.12536897 8.35709633 -16.33788153 -0.68074506 0 0 Z " fill="#343635" transform="translate(700,663)"/>
<path d="M0 0 C0.62989709 7.55876502 -1.99225054 12.67943463 -6.625 18.5625 C-14.48222125 27.14289833 -25.02036551 32.52447321 -36.49609375 34.41015625 C-40.77493737 34.59619293 -43.61740618 33.56257108 -47 31 C-48 30 -48 30 -48.4375 27.4375 C-47.68841386 21.55182318 -44.25307438 17.96009218 -39.8671875 14.14453125 C-28.85173671 5.91020912 -13.95136792 -0.46077912 0 0 Z " fill="#F9F9F9" transform="translate(562,695)"/>
<path d="M0 0 C0 1.65 0 3.3 0 5 C-0.72445312 5.09796875 -1.44890625 5.1959375 -2.1953125 5.296875 C-11.38055665 6.71752609 -16.40197888 9.64260081 -22 17 C-23.33827901 19.67655801 -23.20578556 21.82434052 -23.25 24.8125 C-23.27578125 25.85019531 -23.3015625 26.88789062 -23.328125 27.95703125 C-22.95408344 31.42582145 -22.07568054 33.22110993 -20 36 C-16.24952518 38.50031654 -14.44143734 38.53603554 -10 38 C-6.26000253 35.09111308 -4.46133119 32.44923158 -3 28 C-2.51146496 22.31146483 -2.79254026 16.58450131 -4 11 C-1.69 10.34 0.62 9.68 3 9 C6.02299331 15.80173496 7.49561222 22.07895335 5.2734375 29.390625 C1.60181505 38.16669817 -2.95888117 44.37342659 -11.875 48.25 C-18.3956682 49.81496037 -23.39961761 49.62039395 -29.234375 46.3125 C-33.19694853 43.36687012 -34.68097982 40.16667874 -35.375 35.453125 C-35.82513966 25.49378496 -32.25626152 17.63782245 -25.9921875 10.04296875 C-18.47247174 2.33157396 -10.56729654 -0.42269186 0 0 Z " fill="#343635" transform="translate(356,664)"/>
<path d="M0 0 C2.475 1.485 2.475 1.485 5 3 C3.67794075 7.23200947 2.06648222 11.11751989 0.09375 15.0859375 C-0.76778687 16.83559814 -0.76778687 16.83559814 -1.64672852 18.62060547 C-1.94926544 19.23272888 -2.25180237 19.84485229 -2.56350708 20.4755249 C-20.42380627 54.222511 -20.42380627 54.222511 -27 91 C-26.67 91.66 -26.34 92.32 -26 93 C-22.56769552 92.73606499 -22.56769552 92.73606499 -19 92 C-18.34 91.01 -17.68 90.02 -17 89 C-15.515 89.495 -15.515 89.495 -14 90 C-14.89133985 95.56450734 -18.90739606 99.38802215 -23 103 C-26.65095831 104.1561368 -28.58701304 104.35324674 -32.25 103.4375 C-34.92618992 101.23920114 -35.81499873 99.2587535 -37 96 C-37.74995569 87.70835512 -35.38659567 80.82847673 -32.6875 73.0625 C-32.46413971 72.4076059 -32.24077942 71.75271179 -32.01065063 71.07797241 C-25.57357312 52.22170535 -17.5957958 34.08476005 -9 16.125 C-8.44787842 14.97104736 -7.89575684 13.81709473 -7.3269043 12.62817383 C-6.80652588 11.55720459 -6.28614746 10.48623535 -5.75 9.3828125 C-5.29109375 8.43809082 -4.8321875 7.49336914 -4.359375 6.52001953 C-3.08098049 4.15012224 -1.67733729 2.10098829 0 0 Z " fill="#353736" transform="translate(322,611)"/>
<path d="M0 0 C-1.24275164 8.21678141 -6.86320726 16.45796251 -13 22 C-20.08718079 26.97227605 -26.14493509 30.01903525 -35 29 C-39.56944444 26.86111111 -39.56944444 26.86111111 -41 24 C-41.5093655 19.74972066 -41.59546604 16.16386544 -39.625 12.3125 C-28.50276359 2.51433935 -14.63152127 -0.98088411 0 0 Z " fill="#F9F9F9" transform="translate(239,715)"/>
<path d="M0 0 C0.48032656 8.71703754 -0.92686581 16.54704214 -3 25 C-2.48953125 24.07380859 -2.48953125 24.07380859 -1.96875 23.12890625 C2.20559367 15.8349068 6.91193902 8.72537398 14 4 C17.83693587 3.58142518 20.11203064 3.45355731 23.4375 5.5 C25.63790363 9.02064581 25.83810562 12.03153406 25 16 C23.31394647 19.79861863 21.51997487 23.04276392 17.953125 25.2890625 C17.30859375 25.52367187 16.6640625 25.75828125 16 26 C15.34 25.67 14.68 25.34 14 25 C14.33 22.03 14.66 19.06 15 16 C12.21061788 15.58109782 12.21061788 15.58109782 9 16 C4.17097284 19.92161192 1.7150518 24.76358392 -1.0625 30.25 C-1.48337891 31.05824219 -1.90425781 31.86648438 -2.33789062 32.69921875 C-5.09718355 38.04668566 -7.61677233 43.47535806 -10 49 C-15.75 48.125 -15.75 48.125 -18 47 C-17.17158629 41.32593348 -14.77987702 36.21186574 -12.61523438 30.9453125 C-9.50488965 23.18589014 -7.86232817 15.8033003 -7.375 7.4375 C-7.30023437 6.21933594 -7.22546875 5.00117187 -7.1484375 3.74609375 C-7.09945312 2.83988281 -7.05046875 1.93367187 -7 1 C-4 0 -4 0 0 0 Z " fill="#343635" transform="translate(732,662)"/>
<path d="M0 0 C11.42307692 0 11.42307692 0 15 3 C16.34283649 5.68567297 16.24287519 7.87746853 16.3125 10.875 C16.34988281 11.92429687 16.38726562 12.97359375 16.42578125 14.0546875 C15.89992104 17.69228932 14.86714047 18.77861189 12 21 C9 22 9 22 0 22 C0 14.74 0 7.48 0 0 Z " fill="#F4F5F5" transform="translate(366,781)"/>
<path d="M0 0 C11 0 11 0 15 3 C14.6875 6.375 14.6875 6.375 14 10 C13.01 10.66 12.02 11.32 11 12 C11.433125 13.0828125 11.433125 13.0828125 11.875 14.1875 C12.91666667 16.79166667 13.95833333 19.39583333 15 22 C14.01 22 13.02 22 12 22 C11.68546875 21.36191406 11.3709375 20.72382812 11.046875 20.06640625 C10.61890625 19.24011719 10.1909375 18.41382813 9.75 17.5625 C9.33234375 16.73878906 8.9146875 15.91507813 8.484375 15.06640625 C7.01047374 12.54473322 7.01047374 12.54473322 3 12 C3 15.3 3 18.6 3 22 C2.01 22 1.02 22 0 22 C0 14.74 0 7.48 0 0 Z " fill="#545555" transform="translate(322,781)"/>
<path d="M0 0 C11 0 11 0 15 3 C14.38461538 9.52307692 14.38461538 9.52307692 12.4375 11.9375 C11.963125 12.288125 11.48875 12.63875 11 13 C11.66 14.11375 12.32 15.2275 13 16.375 C15 19.75 15 19.75 15 22 C14.01 22 13.02 22 12 22 C11.68546875 21.36191406 11.3709375 20.72382812 11.046875 20.06640625 C10.61890625 19.24011719 10.1909375 18.41382813 9.75 17.5625 C9.33234375 16.73878906 8.9146875 15.91507813 8.484375 15.06640625 C7.01047374 12.54473322 7.01047374 12.54473322 3 12 C3 15.3 3 18.6 3 22 C2.01 22 1.02 22 0 22 C0 14.74 0 7.48 0 0 Z " fill="#4E504F" transform="translate(635,781)"/>
<path d="M0 0 C1.32 0 2.64 0 4 0 C6.97 5.28 9.94 10.56 13 16 C13.33 10.72 13.66 5.44 14 0 C14.66 0 15.32 0 16 0 C16 7.26 16 14.52 16 22 C15.01 22 14.02 22 13 22 C10.03 16.72 7.06 11.44 4 6 C3.67 11.28 3.34 16.56 3 22 C2.01 22 1.02 22 0 22 C0 14.74 0 7.48 0 0 Z " fill="#3E403F" transform="translate(445,781)"/>
<path d="M0 0 C11.42307692 0 11.42307692 0 15 3 C16.34283649 5.68567297 16.24287519 7.87746853 16.3125 10.875 C16.34988281 11.92429687 16.38726562 12.97359375 16.42578125 14.0546875 C15.89992104 17.69228932 14.86714047 18.77861189 12 21 C9 22 9 22 0 22 C0 14.74 0 7.48 0 0 Z M3 2 C3 7.94 3 13.88 3 20 C8.57701458 20.48368611 8.57701458 20.48368611 11.375 18.6875 C13.91620688 14.48473478 13.99178051 9.77658995 13 5 C11.42190065 3.0192504 11.42190065 3.0192504 9 2 C7.02 2 5.04 2 3 2 Z " fill="#494B4A" transform="translate(366,781)"/>
<path d="M0 0 C1.98828125 0.30859375 1.98828125 0.30859375 3.98828125 1.30859375 C3.98828125 1.96859375 3.98828125 2.62859375 3.98828125 3.30859375 C3.37339844 3.27378906 2.75851562 3.23898437 2.125 3.203125 C0.91263672 3.16251953 0.91263672 3.16251953 -0.32421875 3.12109375 C-1.12472656 3.08628906 -1.92523437 3.05148437 -2.75 3.015625 C-5.06243856 3.13443954 -5.06243856 3.13443954 -6.78515625 4.57421875 C-8.87772066 7.53313148 -8.3868613 10.86283999 -8.01171875 14.30859375 C-7.65193308 16.78406247 -7.65193308 16.78406247 -6.01171875 18.30859375 C-2.44965214 19.1272956 -2.44965214 19.1272956 0.98828125 19.30859375 C1.31828125 17.32859375 1.64828125 15.34859375 1.98828125 13.30859375 C0.66828125 13.30859375 -0.65171875 13.30859375 -2.01171875 13.30859375 C-2.01171875 12.64859375 -2.01171875 11.98859375 -2.01171875 11.30859375 C0.29828125 11.30859375 2.60828125 11.30859375 4.98828125 11.30859375 C4.98828125 14.27859375 4.98828125 17.24859375 4.98828125 20.30859375 C0.50786519 22.54880178 -2.3725758 23.06263459 -7.19921875 21.68359375 C-10.38188647 19.26915617 -11.6582835 16.23712088 -12.37109375 12.34765625 C-12.62812322 8.62072899 -12.19931126 5.92637653 -10.07421875 2.80859375 C-6.39507285 -0.19479066 -4.58232888 -0.25414597 0 0 Z " fill="#4B4D4C" transform="translate(520.01171875,780.69140625)"/>
<path d="M0 0 C4 1 4 1 5.88671875 3.6171875 C6.48097656 4.69226563 7.07523437 5.76734375 7.6875 6.875 C8.28949219 7.94492187 8.89148438 9.01484375 9.51171875 10.1171875 C11 13 11 13 12 16 C12.33 10.72 12.66 5.44 13 0 C13.66 0 14.32 0 15 0 C15 6.93 15 13.86 15 21 C11 20 11 20 8.859375 16.83984375 C8.14296756 15.54633032 7.44025765 14.24515477 6.75 12.9375 C6.38648438 12.27427734 6.02296875 11.61105469 5.6484375 10.92773438 C4.75383252 9.29154895 3.87533933 7.64657276 3 6 C2.67 10.95 2.34 15.9 2 21 C1.34 21 0.68 21 0 21 C0 14.07 0 7.14 0 0 Z " fill="#353736" transform="translate(484,781)"/>
<path d="M0 0 C4.29 0 8.58 0 13 0 C13 0.66 13 1.32 13 2 C9.7 2 6.4 2 3 2 C3 4.31 3 6.62 3 9 C5.64 9 8.28 9 11 9 C11 9.99 11 10.98 11 12 C8.36 12 5.72 12 3 12 C3 14.64 3 17.28 3 20 C6.3 20 9.6 20 13 20 C13 20.66 13 21.32 13 22 C8.71 22 4.42 22 0 22 C0 14.74 0 7.48 0 0 Z " fill="#404241" transform="translate(391,781)"/>
<path d="M0 0 C4.29 0 8.58 0 13 0 C13 0.66 13 1.32 13 2 C9.7 2 6.4 2 3 2 C3 4.31 3 6.62 3 9 C5.64 9 8.28 9 11 9 C11 9.99 11 10.98 11 12 C8.36 12 5.72 12 3 12 C3 14.64 3 17.28 3 20 C6.3 20 9.6 20 13 20 C13 20.66 13 21.32 13 22 C8.71 22 4.42 22 0 22 C0 14.74 0 7.48 0 0 Z " fill="#404241" transform="translate(345,781)"/>
<path d="M0 0 C1.75 0.125 1.75 0.125 4 1 C6.25 4.0625 6.25 4.0625 8 7 C9.32 4.69 10.64 2.38 12 0 C12.99 0.33 13.98 0.66 15 1 C14.319375 2.03125 13.63875 3.0625 12.9375 4.125 C11.37794085 6.86805438 10.99723575 7.86178751 11.0625 11.125 C12.02688964 14.08246155 13.36413354 16.36838873 15 19 C15 19.99 15 20.98 15 22 C14.01 22 13.02 22 12 22 C10.68 19.36 9.36 16.72 8 14 C5.74754119 16.68841859 4.11786042 18.64641875 3 22 C2.01 22 1.02 22 0 22 C1.05875074 18.59687262 2.00902154 15.98646769 4 13 C3.71715843 8.0031322 2.4378762 4.34577931 0 0 Z " fill="#505151" transform="translate(587,781)"/>
<path d="M0 0 C0.66 0 1.32 0 2 0 C2.06058594 1.21558594 2.12117187 2.43117188 2.18359375 3.68359375 C2.26798332 5.26824228 2.3526321 6.85287702 2.4375 8.4375 C2.47681641 9.23994141 2.51613281 10.04238281 2.55664062 10.86914062 C2.4054296 14.75239561 2.4054296 14.75239561 4 18 C6.33297433 18.04092937 8.66705225 18.04241723 11 18 C12.585869 14.828262 12.37866445 11.36486178 12.5625 7.875 C12.60568359 7.12089844 12.64886719 6.36679687 12.69335938 5.58984375 C12.7994832 3.72678112 12.90025001 1.86341476 13 0 C13.99 0 14.98 0 16 0 C16.10845031 2.56364483 16.18749744 5.12266279 16.25 7.6875 C16.30027344 8.7693457 16.30027344 8.7693457 16.3515625 9.87304688 C16.42291404 13.77954343 16.27534719 15.56934334 14.109375 18.95703125 C11.53326042 21.45204592 10.64411388 21.9451818 7.0625 22.25 C4 22 4 22 2.1875 20.625 C-0.63206244 16.7666514 -0.11095139 12.9667005 -0.0625 8.375 C-0.05798828 7.57320312 -0.05347656 6.77140625 -0.04882812 5.9453125 C-0.03703168 3.96350994 -0.01909605 1.98174567 0 0 Z " fill="#575958" transform="translate(610,781)"/>
<path d="M0 0 C0.66 0 1.32 0 2 0 C2.06058594 1.21558594 2.12117187 2.43117188 2.18359375 3.68359375 C2.26798332 5.26824228 2.3526321 6.85287702 2.4375 8.4375 C2.47681641 9.23994141 2.51613281 10.04238281 2.55664062 10.86914062 C2.4054296 14.75239561 2.4054296 14.75239561 4 18 C6.33297433 18.04092937 8.66705225 18.04241723 11 18 C12.585869 14.828262 12.37866445 11.36486178 12.5625 7.875 C12.60568359 7.12089844 12.64886719 6.36679687 12.69335938 5.58984375 C12.7994832 3.72678112 12.90025001 1.86341476 13 0 C13.99 0 14.98 0 16 0 C16.10845031 2.56364483 16.18749744 5.12266279 16.25 7.6875 C16.30027344 8.7693457 16.30027344 8.7693457 16.3515625 9.87304688 C16.42291404 13.77954343 16.27534719 15.56934334 14.109375 18.95703125 C11.53326042 21.45204592 10.64411388 21.9451818 7.0625 22.25 C4 22 4 22 2.1875 20.625 C-0.63206244 16.7666514 -0.11095139 12.9667005 -0.0625 8.375 C-0.05798828 7.57320312 -0.05347656 6.77140625 -0.04882812 5.9453125 C-0.03703168 3.96350994 -0.01909605 1.98174567 0 0 Z " fill="#575958" transform="translate(564,781)"/>
<path d="M0 0 C3 1 3 1 4.6875 3.9375 C6 7 6 7 6 9 C8.56995074 7.71502463 8.90434463 6.50087627 10.125 3.9375 C10.47820313 3.20402344 10.83140625 2.47054687 11.1953125 1.71484375 C11.46085938 1.14894531 11.72640625 0.58304688 12 0 C12.99 0.33 13.98 0.66 15 1 C14.65066406 1.59425781 14.30132813 2.18851563 13.94140625 2.80078125 C10.40268647 9.24666458 9.15331319 14.66884213 9 22 C7.68 22 6.36 22 5 22 C4.97421875 21.29875 4.9484375 20.5975 4.921875 19.875 C4.57410308 14.05772424 3.83673374 9.69017197 0.83984375 4.65625 C0 3 0 3 0 0 Z " fill="#5F605F" transform="translate(656,781)"/>
<path d="M0 0 C0.99 0 1.98 0 3 0 C3 6.6 3 13.2 3 20 C6.3 20 9.6 20 13 20 C13 20.66 13 21.32 13 22 C8.71 22 4.42 22 0 22 C0 14.74 0 7.48 0 0 Z " fill="#4B4D4C" transform="translate(544,781)"/>
<path d="M0 0 C3.96 0 7.92 0 12 0 C12 0.66 12 1.32 12 2 C8.7 2 5.4 2 2 2 C2 4.64 2 7.28 2 10 C4.97 10 7.94 10 11 10 C11 10.66 11 11.32 11 12 C8.03 12 5.06 12 2 12 C2 14.97 2 17.94 2 21 C1.34 21 0.68 21 0 21 C0 14.07 0 7.14 0 0 Z " fill="#393B3A" transform="translate(413,781)"/>
<path d="M0 0 C6.75 -0.125 6.75 -0.125 9 1 C9.125 3.375 9.125 3.375 9 6 C7 8 7 8 3.375 8.125 C2.26125 8.08375 1.1475 8.0425 0 8 C0 5.36 0 2.72 0 0 Z " fill="#EFEFEF" transform="translate(638,783)"/>
<path d="M0 0 C0.99 0 1.98 0 3 0 C3 7.26 3 14.52 3 22 C2.01 22 1.02 22 0 22 C0 14.74 0 7.48 0 0 Z " fill="#484A49" transform="translate(471,781)"/>
<path d="M0 0 C0.99 0 1.98 0 3 0 C3 7.26 3 14.52 3 22 C2.01 22 1.02 22 0 22 C0 14.74 0 7.48 0 0 Z " fill="#4B4D4C" transform="translate(433,781)"/>
<path d="M0 0 C1.32 0 2.64 0 4 0 C4 0.99 4 1.98 4 3 C3.34 3 2.68 3 2 3 C2.165 3.9075 2.33 4.815 2.5 5.75 C3.28873311 11.13782475 3.08025923 16.56912556 3 22 C2.01 22 1.02 22 0 22 C0 14.74 0 7.48 0 0 Z " fill="#4C4E4D" transform="translate(445,781)"/>
<path d="M0 0 C6.75 -0.125 6.75 -0.125 9 1 C9.042721 2.66611905 9.04063832 4.33382885 9 6 C8 7 8 7 6.15234375 7.09765625 C4.1015625 7.06510417 2.05078125 7.03255208 0 7 C0 4.69 0 2.38 0 0 Z " fill="#F5F5F5" transform="translate(325,783)"/>
<path d="M0 0 C3.3 0 6.6 0 10 0 C10 0.33 10 0.66 10 1 C7.69 1.33 5.38 1.66 3 2 C2.25492456 8.37305598 1.89650183 14.58311325 2 21 C1.34 21 0.68 21 0 21 C0 14.07 0 7.14 0 0 Z " fill="#373938" transform="translate(635,781)"/>
<path d="M0 0 C2.97 0 5.94 0 9 0 C9 0.33 9 0.66 9 1 C7.02 1.33 5.04 1.66 3 2 C2.25492456 8.37305598 1.89650183 14.58311325 2 21 C1.34 21 0.68 21 0 21 C0 14.07 0 7.14 0 0 Z " fill="#303231" transform="translate(322,781)"/>
<path d="M0 0 C1.63671875 1.25390625 1.63671875 1.25390625 3 3 C3.29296875 5.48046875 3.29296875 5.48046875 3.1875 8.1875 C3.16042969 9.08855469 3.13335937 9.98960937 3.10546875 10.91796875 C3.07066406 11.60503906 3.03585937 12.29210937 3 13 C2.34 13 1.68 13 1 13 C0.89042969 12.30132813 0.78085937 11.60265625 0.66796875 10.8828125 C0.50941406 9.97273437 0.35085938 9.06265625 0.1875 8.125 C0.03667969 7.22007812 -0.11414063 6.31515625 -0.26953125 5.3828125 C-0.83051301 2.65587522 -0.83051301 2.65587522 -4 1 C-5.9896995 0.60986284 -7.99019869 0.26797351 -10 0 C-10 -0.33 -10 -0.66 -10 -1 C-5.9472301 -2.15793426 -3.73695111 -1.96681638 0 0 Z " fill="#333534" transform="translate(379,783)"/>
<path d="M0 0 C0.66 0 1.32 0 2 0 C2 6.93 2 13.86 2 21 C1.01 21 0.02 21 -1 21 C-0.83701416 20.42475586 -0.67402832 19.84951172 -0.50610352 19.25683594 C-0.00962472 17.04291893 0.11479744 15.15326203 0.09765625 12.890625 C0.09443359 12.13652344 0.09121094 11.38242187 0.08789062 10.60546875 C0.07951172 9.82816406 0.07113281 9.05085937 0.0625 8.25 C0.05573242 7.06083984 0.05573242 7.06083984 0.04882812 5.84765625 C0.03708565 3.89840492 0.01915146 1.94919262 0 0 Z " fill="#2D2F2E" transform="translate(497,781)"/>
<path d="M0 0 C0.33 0 0.66 0 1 0 C1 2.31 1 4.62 1 7 C3.64 7 6.28 7 9 7 C9 7.99 9 8.98 9 10 C6.36 10 3.72 10 1 10 C1 12.64 1 15.28 1 18 C0.67 18 0.34 18 0 18 C-0.83288874 11.74692761 -1.03863773 6.23182639 0 0 Z " fill="#6F706F" transform="translate(393,783)"/>
<path d="M0 0 C0.33 0 0.66 0 1 0 C1 2.31 1 4.62 1 7 C3.64 7 6.28 7 9 7 C9 7.99 9 8.98 9 10 C6.36 10 3.72 10 1 10 C1 12.64 1 15.28 1 18 C0.67 18 0.34 18 0 18 C-0.83288874 11.74692761 -1.03863773 6.23182639 0 0 Z " fill="#6F706F" transform="translate(347,783)"/>
<path d="M0 0 C0.33 0 0.66 0 1 0 C1 2.31 1 4.62 1 7 C3.31 7 5.62 7 8 7 C7.01 7.495 7.01 7.495 6 8 C5.67 8.99 5.34 9.98 5 11 C3.68 10.67 2.36 10.34 1 10 C1 13.3 1 16.6 1 20 C0.01 19.67 -0.98 19.34 -2 19 C-1.34 19 -0.68 19 0 19 C-0.08378906 18.29875 -0.16757812 17.5975 -0.25390625 16.875 C-0.88446712 11.00040763 -0.98934629 5.8261504 0 0 Z " fill="#6E706F" transform="translate(324,783)"/>
<path d="M0 0 C0.66 0.33 1.32 0.66 2 1 C-3.28 6.28 -8.56 11.56 -14 17 C-14 12.08113186 -10.31173311 9.3948461 -7 6 C-4.72300284 3.91201998 -2.39497582 1.9550823 0 0 Z " fill="#4C4E4D" transform="translate(548,637)"/>
<path d="M0 0 C0.66 0 1.32 0 2 0 C2.06058594 1.19238281 2.12117187 2.38476562 2.18359375 3.61328125 C2.26801149 5.17969925 2.35265887 6.74610488 2.4375 8.3125 C2.47681641 9.09818359 2.51613281 9.88386719 2.55664062 10.69335938 C2.59853516 11.45068359 2.64042969 12.20800781 2.68359375 12.98828125 C2.72025146 13.68477783 2.75690918 14.38127441 2.79467773 15.09887695 C2.95581153 17.2216572 2.95581153 17.2216572 4 20 C3.01 19.67 2.02 19.34 1 19 C-0.65497356 15.69005287 -0.10084335 12.00877 -0.0625 8.375 C-0.05798828 7.57320312 -0.05347656 6.77140625 -0.04882812 5.9453125 C-0.03703168 3.96350994 -0.01909605 1.98174567 0 0 Z " fill="#2D2F2E" transform="translate(610,781)"/>
<path d="M0 0 C0.66 0 1.32 0 2 0 C2.06058594 1.19238281 2.12117187 2.38476562 2.18359375 3.61328125 C2.26801149 5.17969925 2.35265887 6.74610488 2.4375 8.3125 C2.47681641 9.09818359 2.51613281 9.88386719 2.55664062 10.69335938 C2.59853516 11.45068359 2.64042969 12.20800781 2.68359375 12.98828125 C2.72025146 13.68477783 2.75690918 14.38127441 2.79467773 15.09887695 C2.95581153 17.2216572 2.95581153 17.2216572 4 20 C3.01 19.67 2.02 19.34 1 19 C-0.65497356 15.69005287 -0.10084335 12.00877 -0.0625 8.375 C-0.05798828 7.57320312 -0.05347656 6.77140625 -0.04882812 5.9453125 C-0.03703168 3.96350994 -0.01909605 1.98174567 0 0 Z " fill="#2D2F2E" transform="translate(564,781)"/>
<path d="M0 0 C0.66 0.33 1.32 0.66 2 1 C-2.62 5.62 -7.24 10.24 -12 15 C-12.66 14.67 -13.32 14.34 -14 14 C-12.42100123 12.22513306 -10.83707231 10.45512408 -9.25 8.6875 C-8.8065625 8.18798828 -8.363125 7.68847656 -7.90625 7.17382812 C-5.453615 4.45068191 -3.02719984 2.07235877 0 0 Z " fill="#4E4F4F" transform="translate(792,667)"/>
<path d="M0 0 C0.99 0.33 1.98 0.66 3 1 C-1.29 5.29 -5.58 9.58 -10 14 C-10.66 13.67 -11.32 13.34 -12 13 C-10.18777319 11.02058257 -8.37523172 9.04145495 -6.5625 7.0625 C-6.04623047 6.49853516 -5.52996094 5.93457031 -4.99804688 5.35351562 C-1.11328125 1.11328125 -1.11328125 1.11328125 0 0 Z " fill="#4D4F4E" transform="translate(437,662)"/>
<path d="M0 0 C0.66 0.33 1.32 0.66 2 1 C-2.95 5.95 -7.9 10.9 -13 16 C-13 10.79628205 -8.49504984 7.5790344 -5 4 C-3.37707762 2.6137538 -1.7331451 1.24569804 0 0 Z " fill="#4D4E4D" transform="translate(229,638)"/>
<path d="M0 0 C-0.2475 0.70125 -0.495 1.4025 -0.75 2.125 C-1.09938243 6.14289796 0.67446468 7.82881547 3 11 C3 11.66 3 12.32 3 13 C2.01 13 1.02 13 0 13 C-4.57142857 5.71428571 -4.57142857 5.71428571 -4 1 C-2 0 -2 0 0 0 Z " fill="#444645" transform="translate(334,790)"/>
<path d="M0 0 C4 1 4 1 5.75 3.375 C7 6 7 6 7 9 C7.66 9 8.32 9 9 9 C9 9.99 9 10.98 9 12 C8.01 12 7.02 12 6 12 C4.02 8.04 2.04 4.08 0 0 Z " fill="#434544" transform="translate(587,781)"/>
<path d="M0 0 C0.33 0 0.66 0 1 0 C1 2.64 1 5.28 1 8 C2.65 8 4.3 8 6 8 C5.67 8.99 5.34 9.98 5 11 C3.68 10.67 2.36 10.34 1 10 C1 13.3 1 16.6 1 20 C0.01 19.67 -0.98 19.34 -2 19 C-1.34 19 -0.68 19 0 19 C-0.08378906 18.29875 -0.16757812 17.5975 -0.25390625 16.875 C-0.88446712 11.00040763 -0.98934629 5.8261504 0 0 Z " fill="#555756" transform="translate(637,783)"/>
<path d="M0 0 C0.33 0.99 0.66 1.98 1 3 C1.66 3.33 2.32 3.66 3 4 C1.35 6.97 -0.3 9.94 -2 13 C-2.99 13 -3.98 13 -5 13 C-3.58192622 8.52761347 -1.88695626 4.28853694 0 0 Z " fill="#565756" transform="translate(592,790)"/>
<path d="M0 0 C0.66 0 1.32 0 2 0 C2.83819158 1.62249941 3.6704116 3.24808497 4.5 4.875 C4.9640625 5.77992188 5.428125 6.68484375 5.90625 7.6171875 C7 10 7 10 7 12 C6.01 12 5.02 12 4 12 C3.32332002 10.75539217 2.65905281 9.50403104 2 8.25 C1.62875 7.55390625 1.2575 6.8578125 0.875 6.140625 C0 4 0 4 0 0 Z " fill="#444545" transform="translate(643,791)"/>
<path d="M0 0 C0.33 0 0.66 0 1 0 C1 2.64 1 5.28 1 8 C1.66 8 2.32 8 3 8 C1.84826645 10.46800047 0.95216435 12.04783565 -1 14 C-1.99 14 -2.98 14 -4 14 C-2.125 10.125 -2.125 10.125 -1 9 C-0.76807135 7.48530552 -0.58784762 5.96245438 -0.4375 4.4375 C-0.35371094 3.61121094 -0.26992188 2.78492188 -0.18359375 1.93359375 C-0.12300781 1.29550781 -0.06242187 0.65742187 0 0 Z " fill="#626362" transform="translate(379,788)"/>
<path d="M0 0 C2.52827282 3.13024254 4.20542002 6.41084003 6 10 C6.66 10.66 7.32 11.32 8 12 C7.34 12 6.68 12 6 12 C5.67 12.66 5.34 13.32 5 14 C4.1533966 12.61217515 3.32324661 11.21430603 2.5 9.8125 C2.0359375 9.03519531 1.571875 8.25789062 1.09375 7.45703125 C-0.10729647 4.75896614 -0.20741043 2.9193018 0 0 Z " fill="#4C4E4D" transform="translate(490,787)"/>
<path d="M0 0 C0.66 0.33 1.32 0.66 2 1 C-1.96 4.96 -5.92 8.92 -10 13 C-10 8.83248505 -7.76127698 6.85829482 -5 4 C-3.36927384 2.62294236 -1.7133562 1.27277889 0 0 Z " fill="#D9D9D9" transform="translate(677,675)"/>
<path d="M0 0 C0.7940625 0.01417969 1.588125 0.02835938 2.40625 0.04296875 C3.59734375 0.05263672 3.59734375 0.05263672 4.8125 0.0625 C6.90625 0.23046875 6.90625 0.23046875 8.90625 1.23046875 C8.90625 1.89046875 8.90625 2.55046875 8.90625 3.23046875 C7.96652344 3.21306641 7.96652344 3.21306641 7.0078125 3.1953125 C5.78191406 3.18177734 5.78191406 3.18177734 4.53125 3.16796875 C3.31308594 3.15056641 3.31308594 3.15056641 2.0703125 3.1328125 C-0.14312142 3.08580541 -0.14312142 3.08580541 -2.09375 4.23046875 C-2.75375 3.57046875 -3.41375 2.91046875 -4.09375 2.23046875 C-2.09375 0.23046875 -2.09375 0.23046875 0 0 Z " fill="#595A59" transform="translate(515.09375,780.76953125)"/>
<path d="M0 0 C0.66 0.33 1.32 0.66 2 1 C-1.63 4.63 -5.26 8.26 -9 12 C-9 8.47601214 -8.44884893 7.98495633 -6.1875 5.4375 C-5.40439453 4.53837891 -5.40439453 4.53837891 -4.60546875 3.62109375 C-3 2 -3 2 0 0 Z " fill="#494B4A" transform="translate(195,720)"/>
<path d="M0 0 C0.66 0.33 1.32 0.66 2 1 C-1.63 4.63 -5.26 8.26 -9 12 C-9 7.8407692 -6.75316432 5.85455565 -4 3 C-1.6875 1.125 -1.6875 1.125 0 0 Z " fill="#DADADA" transform="translate(525,707)"/>
<path d="M0 0 C0.66 0.33 1.32 0.66 2 1 C-1.63 4.63 -5.26 8.26 -9 12 C-9 7.8407692 -6.75316432 5.85455565 -4 3 C-1.6875 1.125 -1.6875 1.125 0 0 Z " fill="#4C4E4D" transform="translate(336,669)"/>
<path d="M0 0 C-2.16698239 2.16698239 -7.08478864 1.32211799 -10.01953125 1.42578125 C-13.55174531 2.10629956 -14.74792787 3.26806747 -17 6 C-16.125 1.125 -16.125 1.125 -15 0 C-12.86006029 -0.26203343 -10.71211406 -0.46018841 -8.5625 -0.625 C-7.38816406 -0.72039063 -6.21382812 -0.81578125 -5.00390625 -0.9140625 C-2 -1 -2 -1 0 0 Z " fill="#5A5C5B" transform="translate(624,705)"/>
<path d="M0 0 C0.99 0.33 1.98 0.66 3 1 C1.73113036 2.12721436 0.45982438 3.25168658 -0.8125 4.375 C-1.52019531 5.00148438 -2.22789062 5.62796875 -2.95703125 6.2734375 C-5 8 -5 8 -8 10 C-6.23915938 6.0381086 -3.9706445 1.98532225 0 0 Z " fill="#4E504F" transform="translate(401,664)"/>
<path d="M0 0 C0 0.33 0 0.66 0 1 C-1.299375 1.3403125 -1.299375 1.3403125 -2.625 1.6875 C-6.61778814 3.24025095 -8.84248305 5.14319895 -12 8 C-9.83199867 1.31532922 -6.98981916 -0.47657858 0 0 Z " fill="#DADADA" transform="translate(747,677)"/>
<path d="M0 0 C1.32 0.33 2.64 0.66 4 1 C4.33 2.98 4.66 4.96 5 7 C4.01 7 3.02 7 2 7 C0.5393715 4.35261084 0 3.10551666 0 0 Z " fill="#404241" transform="translate(456,796)"/>
<path d="M0 0 C2 1 4 2 6 3 C6 3.66 6 4.32 6 5 C7.65 5 9.3 5 11 5 C11 5.33 11 5.66 11 6 C4.12205567 6.31263383 4.12205567 6.31263383 1 4 C0.25 1.875 0.25 1.875 0 0 Z " fill="#565857" transform="translate(510,797)"/>
<path d="M0 0 C3 1 3 1 4.25 2.8125 C5.11637742 5.33943414 4.88492145 6.52221994 4 9 C0 3.375 0 3.375 0 0 Z " fill="#3F4140" transform="translate(656,781)"/>
<path d="M0 0 C-0.33 0.66 -0.66 1.32 -1 2 C-2.051875 1.5359375 -2.051875 1.5359375 -3.125 1.0625 C-6.08936657 -0.03302678 -8.87698108 -0.56422992 -12 -1 C-12 -1.33 -12 -1.66 -12 -2 C-7.0648497 -3.41004294 -4.43403746 -2.21701873 0 0 Z " fill="#545655" transform="translate(381,784)"/>
<path d="M0 0 C-0.58265625 0.26554688 -1.1653125 0.53109375 -1.765625 0.8046875 C-4.06174228 2.03302996 -5.80356018 3.40314939 -7.75 5.125 C-8.36359375 5.66382813 -8.9771875 6.20265625 -9.609375 6.7578125 C-10.06828125 7.16773438 -10.5271875 7.57765625 -11 8 C-9.04672006 1.97738686 -6.47971237 -0.53997603 0 0 Z " fill="#4D4E4D" transform="translate(265,672)"/>
<path d="M0 0 C1.41687119 4.25061356 0.19320039 6.71851625 -1 11 C-1.99 11 -2.98 11 -4 11 C-3.52269162 9.5410574 -3.04308958 8.08286504 -2.5625 6.625 C-2.29566406 5.81289063 -2.02882813 5.00078125 -1.75390625 4.1640625 C-1 2 -1 2 0 0 Z " fill="#DBDBDB" transform="translate(624,328)"/>
<path d="M0 0 C0.99 0 1.98 0 3 0 C2.35455571 3.48539917 0.89865603 6.02819057 -1 9 C-2.25541557 5.23375329 -1.37061958 3.62811066 0 0 Z " fill="#BFC0C0" transform="translate(775,680)"/>
<path d="M0 0 C0.66 0.33 1.32 0.66 2 1 C-0.64 3.64 -3.28 6.28 -6 9 C-6 6 -6 6 -3.5625 3.375 C-2.716875 2.59125 -1.87125 1.8075 -1 1 C-0.67 0.67 -0.34 0.34 0 0 Z " fill="#DBDBDB" transform="translate(205,723)"/>
</svg>
